<svg width="12" height="13" viewBox="0 0 12 13" fill="none" xmlns="http://www.w3.org/2000/svg">
<path d="M11 7.33171H6.83335V11.4984C6.83335 11.7194 6.74556 11.9313 6.58928 12.0876C6.433 12.2439 6.22103 12.3317 6.00002 12.3317C5.77901 12.3317 5.56705 12.2439 5.41077 12.0876C5.25448 11.9313 5.16669 11.7194 5.16669 11.4984V7.33171H1.00002C0.779007 7.33171 0.567045 7.24391 0.410765 7.08763C0.254485 6.93135 0.166687 6.71939 0.166687 6.49837C0.166687 6.27736 0.254485 6.0654 0.410765 5.90912C0.567045 5.75284 0.779007 5.66504 1.00002 5.66504H5.16669V1.49837C5.16669 1.27736 5.25448 1.0654 5.41077 0.909117C5.56705 0.752836 5.77901 0.665039 6.00002 0.665039C6.22103 0.665039 6.433 0.752836 6.58928 0.909117C6.74556 1.0654 6.83335 1.27736 6.83335 1.49837V5.66504H11C11.221 5.66504 11.433 5.75284 11.5893 5.90912C11.7456 6.0654 11.8334 6.27736 11.8334 6.49837C11.8334 6.71939 11.7456 6.93135 11.5893 7.08763C11.433 7.24391 11.221 7.33171 11 7.33171Z" fill="white"/>
</svg>
