<svg width="20" height="21" viewBox="0 0 20 21" fill="none" xmlns="http://www.w3.org/2000/svg">
<g clip-path="url(#clip0_1_639)">
<path d="M9.16675 10.9785C9.16675 11.1993 9.25455 11.411 9.41083 11.5671C9.56711 11.7232 9.77907 11.8109 10.0001 11.8109C10.2211 11.8109 10.4331 11.7232 10.5893 11.5671C10.7456 11.411 10.8334 11.1993 10.8334 10.9785C10.8334 10.7577 10.7456 10.546 10.5893 10.3899C10.4331 10.2338 10.2211 10.1461 10.0001 10.1461C9.77907 10.1461 9.56711 10.2338 9.41083 10.3899C9.25455 10.546 9.16675 10.7577 9.16675 10.9785Z" stroke="#1A191B" stroke-width="1.5" stroke-linecap="round" stroke-linejoin="round"/>
<path d="M9.16675 16.8053C9.16675 17.0261 9.25455 17.2378 9.41083 17.3939C9.56711 17.55 9.77907 17.6377 10.0001 17.6377C10.2211 17.6377 10.4331 17.55 10.5893 17.3939C10.7456 17.2378 10.8334 17.0261 10.8334 16.8053C10.8334 16.5845 10.7456 16.3728 10.5893 16.2167C10.4331 16.0606 10.2211 15.9729 10.0001 15.9729C9.77907 15.9729 9.56711 16.0606 9.41083 16.2167C9.25455 16.3728 9.16675 16.5845 9.16675 16.8053Z" stroke="#1A191B" stroke-width="1.5" stroke-linecap="round" stroke-linejoin="round"/>
<path d="M9.16675 5.15185C9.16675 5.37261 9.25455 5.58433 9.41083 5.74044C9.56711 5.89654 9.77907 5.98424 10.0001 5.98424C10.2211 5.98424 10.4331 5.89654 10.5893 5.74044C10.7456 5.58433 10.8334 5.37261 10.8334 5.15185C10.8334 4.93108 10.7456 4.71936 10.5893 4.56326C10.4331 4.40716 10.2211 4.31946 10.0001 4.31946C9.77907 4.31946 9.56711 4.40716 9.41083 4.56326C9.25455 4.71936 9.16675 4.93108 9.16675 5.15185Z" stroke="#1A191B" stroke-width="1.5" stroke-linecap="round" stroke-linejoin="round"/>
</g>
<defs>
<clipPath id="clip0_1_639">
<rect width="20" height="19.9774" fill="white" transform="translate(0 0.989868)"/>
</clipPath>
</defs>
</svg>
