<svg width="20" height="20" viewBox="0 0 20 20" fill="none" xmlns="http://www.w3.org/2000/svg">
<g opacity="0.7" clip-path="url(#clip0_145_10661)">
<path d="M3.33331 5.82689C3.33331 5.38536 3.50891 4.96192 3.82147 4.64971C4.13403 4.33751 4.55795 4.16211 4.99998 4.16211H15C15.442 4.16211 15.8659 4.33751 16.1785 4.64971C16.4911 4.96192 16.6666 5.38536 16.6666 5.82689V15.8156C16.6666 16.2571 16.4911 16.6805 16.1785 16.9928C15.8659 17.305 15.442 17.4804 15 17.4804H4.99998C4.55795 17.4804 4.13403 17.305 3.82147 16.9928C3.50891 16.6805 3.33331 16.2571 3.33331 15.8156V5.82689Z" stroke="#363638" stroke-width="1.5" stroke-linecap="round" stroke-linejoin="round"/>
<path d="M13.3333 2.49707V5.82663" stroke="#363638" stroke-width="1.5" stroke-linecap="round" stroke-linejoin="round"/>
<path d="M6.66669 2.49707V5.82663" stroke="#363638" stroke-width="1.5" stroke-linecap="round" stroke-linejoin="round"/>
<path d="M3.33331 9.15625H16.6666" stroke="#363638" stroke-width="1.5" stroke-linecap="round" stroke-linejoin="round"/>
<path d="M9.16669 12.4863H10" stroke="#363638" stroke-width="1.5" stroke-linecap="round" stroke-linejoin="round"/>
<path d="M10 12.4863V14.9835" stroke="#363638" stroke-width="1.5" stroke-linecap="round" stroke-linejoin="round"/>
</g>
<defs>
<clipPath id="clip0_145_10661">
<rect width="20" height="19.9774" fill="white"/>
</clipPath>
</defs>
</svg>
